<svg xmlns="http://www.w3.org/2000/svg" version="1.1" xmlns:xlink="http://www.w3.org/1999/xlink"
    xmlns:svgjs="http://svgjs.dev/svgjs" width="1500" height="409" viewBox="0 0 1500 409">
    <g transform="matrix(1,0,0,1,-0.9090909090909918,-0.7381520907256345)">
        <svg viewBox="0 0 396 108" data-background-color="#ffffff"
            preserveAspectRatio="xMidYMid meet" height="409" width="1500"
            xmlns="http://www.w3.org/2000/svg" xmlns:xlink="http://www.w3.org/1999/xlink">
            <g id="tight-bounds" transform="matrix(1,0,0,1,0.2400000000000091,0.19491546649967972)">
                <svg viewBox="0 0 395.52 107.61016906700063" height="107.61016906700063"
                    width="395.52">
                    <g>
                        <svg viewBox="0 0 395.52 107.61016906700063" height="107.61016906700063"
                            width="395.52">
                            <g>
                                <svg viewBox="0 0 395.52 107.61016906700063"
                                    height="107.61016906700063" width="395.52">
                                    <g id="textblocktransform">
                                        <svg viewBox="0 0 395.52 107.61016906700063"
                                            height="107.61016906700063" width="395.52"
                                            id="textblock">
                                            <g>
                                                <svg viewBox="0 0 395.52 107.61016906700063"
                                                    height="107.61016906700063" width="395.52">
                                                    <g transform="matrix(1,0,0,1,0,0)">
                                                        <svg width="395.52"
                                                            viewBox="-1.1 -36.2 160.68 43.45"
                                                            height="107.61016906700063"
                                                            data-palette-color="#395297">
                                                            <g class="wordmark-text-0"
                                                                data-fill-palette-color="primary"
                                                                id="text-0">
                                                                <path
                                                                    d="M3.75-9.25L3.75-9.25 3.85-19.35Q3.85-31.2 2.7-32.75L2.7-32.75Q2.15-33.45 2.15-33.73 2.15-34 2.83-34.38 3.5-34.75 5.45-35.2 7.4-35.65 8.9-35.65 10.4-35.65 10.4-34.95L10.4-34.95 10.3-34.3Q9.7-28.9 9.7-23.75 9.7-18.6 10-12.25 10.3-5.9 10.3-2.9L10.3-2.9Q10.3 1.15 7.18 4.08 4.05 7-0.25 7.25L-0.25 7.25Q-1.1 7.15-1.1 6.65L-1.1 6.65Q-1.1 6.3-0.88 6.1-0.65 5.9-0.35 5.6-0.05 5.3 0.75 4.05 1.55 2.8 2.15 1.23 2.75-0.35 3.25-3.15 3.75-5.95 3.75-9.25ZM18.75-18.85L18.75-18.85Q17.45-18.8 16.87-18.78 16.3-18.75 16.3-19.05 16.3-19.35 16.6-19.65L16.6-19.65Q19.8-22.6 27.4-22.6L27.4-22.6Q30-22.6 31.5-22.15L31.5-22.15 32-22Q32.6-21.75 32.6-21.45L32.6-21.45Q32.6-21.2 32.25-21.05L32.25-21.05Q30.9-20.65 29.65-19.78 28.4-18.9 28.4-18.55L28.4-18.55 28.7-18.2Q30.3-17.3 31.17-15.35 32.05-13.4 32.15-11.9L32.15-11.9 32.25-10.35Q32.25-5.4 29.5-2.2 26.75 1 22 1L22 1Q19.6 1 17.85 0.15 16.1-0.7 15.27-1.78 14.45-2.85 13.95-4.2L13.95-4.2Q13.35-6.05 13.35-8.03 13.35-10 14.02-12 14.7-14 15.57-14.95 16.45-15.9 17.55-16.5L17.55-16.5Q18.95-17.25 19.8-17.25 20.65-17.25 20.65-16.9L20.65-16.9 20.35-16.4Q19.25-15.1 18.77-13 18.3-10.9 18.3-9.28 18.3-7.65 18.7-6.05 19.1-4.45 19.6-3.68 20.1-2.9 20.75-2.5L20.75-2.5Q21.7-1.9 22.75-1.9 23.8-1.9 24.8-2.73 25.8-3.55 26.25-4.9L26.25-4.9Q27.15-7.4 27.15-10.05L27.15-10.05Q27.15-14.25 25.02-16.55 22.9-18.85 18.75-18.85ZM44.95-17.25L44.95-17.25 43.8-16.95Q42.9-16.95 42.9-18.63 42.9-20.3 44.12-21.33 45.35-22.35 47.25-22.35L47.25-22.35Q48.3-22.35 49.5-21.73 50.7-21.1 51.5-20.18 52.3-19.25 52.92-17.28 53.55-15.3 53.55-12.65L53.55-12.65Q53.55-6.55 50.27-2.75 47 1.05 40.8 1.05L40.8 1.05Q39 1.05 37.25 0.7L37.25 0.7 36.75 0.6Q36.1 0.4 36-0.1L36-0.1Q35.85-1.15 35.85-5.05L35.85-5.05 36.15-21.25Q36.15-25 35.95-27L35.95-27 35.85-27.7Q35.75-29.1 35.27-30.1 34.8-31.1 34.35-31.4L34.35-31.4 33.95-31.65Q33.6-31.85 33.6-32.1L33.6-32.1Q33.6-32.85 36.1-33.88 38.6-34.9 39.75-34.9 40.9-34.9 40.95-34.3L40.95-34.3Q41.3-31.25 41.3-25.6L41.3-25.6 41.05-13.6Q41.05-5.75 41.5-2.75L41.5-2.75Q41.55-2.05 43.07-2.05 44.6-2.05 45.7-2.9 46.8-3.75 47.35-5.15L47.35-5.15Q48.35-7.7 48.35-10.8L48.35-10.8Q48.35-12.25 47.95-13.95L47.95-13.95Q47.25-17.25 44.95-17.25ZM56.99-19.45L56.99-19.45 56.74-28.9Q56.74-31.15 56.24-32.45 55.74-33.75 55.74-33.85L55.74-33.85Q55.74-34.95 59.12-35.55 62.49-36.15 64.27-36.15 66.04-36.15 66.19-35.3L66.19-35.3Q69.34-21.25 71.49-15.8L71.49-15.8Q71.74-15.2 72.02-15.2 72.29-15.2 72.49-15.65L72.49-15.65Q75.84-25.1 78.39-34.35L78.39-34.35Q78.59-34.95 79.39-35.27 80.19-35.6 82.17-35.9 84.14-36.2 86.09-36.2 88.04-36.2 88.04-35.4L88.04-35.4Q88.04-35.35 87.89-34.63 87.74-33.9 87.59-32.85 87.44-31.8 87.24-30.3L87.24-30.3Q86.79-26.85 86.67-22.38 86.54-17.9 86.54-13.4L86.54-13.4 86.64-8.15Q86.64-4.55 87.12-3.03 87.59-1.5 87.59-1.28 87.59-1.05 87.24-0.75L87.24-0.75Q85.69 0.5 82.54 0.5L82.54 0.5Q80.54 0.5 80.29-0.85L80.29-0.85Q80.14-1.55 80.14-3.08 80.14-4.6 80.44-12.45 80.74-20.3 80.74-23.88 80.74-27.45 80.34-27.45L80.34-27.45Q80.29-27.45 80.29-27.43 80.29-27.4 80.14-27.35 79.99-27.3 79.37-25.8 78.74-24.3 76.89-18.4 75.04-12.5 73.54-7.38 72.04-2.25 71.89-1.85L71.89-1.85Q71.34-0.5 69.79-0.5L69.79-0.5Q69.04-0.5 68.59-1.05L68.59-1.05Q66.99-8.45 62.89-22.2L62.89-22.2 61.49-26.75Q61.39-27 61.29-27L61.29-27Q61.04-27 60.94-26.65L60.94-26.65Q60.74-23.4 60.74-13.88 60.74-4.35 61.44-1.85L61.44-1.85Q61.49-1.75 61.49-1.55L61.49-1.55Q61.49-0.5 59.84-0.03 58.19 0.45 56.87 0.45 55.54 0.45 55.54-0.15L55.54-0.15Q55.54-0.2 55.79-0.95L55.79-0.95Q56.54-3.5 56.77-8.35 56.99-13.2 56.99-19.45ZM107.24-15L107.24-15 107.14-8.6Q107.14-1.95 108.59-0.6L108.59-0.6Q108.79-0.4 108.79-0.15L108.79-0.15Q108.79 0.6 105.57 0.6 102.34 0.6 102.14-1.3L102.14-1.3Q102.09-1.75 102.09-3.15L102.09-3.15 102.29-11.15Q102.29-11.5 101.89-11.5L101.89-11.5Q99.49-11.5 97.39-10.15 95.29-8.8 95.29-6.7L95.29-6.7Q95.29-5.6 95.89-4.85 96.49-4.1 97.37-4.1 98.24-4.1 98.82-4.45 99.39-4.8 99.49-4.85L99.49-4.85Q100.34-4.75 100.34-3.08 100.34-1.4 98.79-0.38 97.24 0.65 95.54 0.65 93.84 0.65 92.62 0.05 91.39-0.55 90.84-1.3 90.29-2.05 89.94-3L89.94-3Q89.59-4.15 89.59-5L89.59-5Q89.59-8.5 91.79-10.6 93.99-12.7 97.44-13.6L97.44-13.6Q101.99-14.5 102.19-15.25L102.19-15.25Q102.34-15.8 102.34-17.1L102.34-17.1Q102.34-19.75 99.64-19.75L99.64-19.75Q98.49-19.75 97.59-19.03 96.69-18.3 96.69-17.2L96.69-17.2 96.99-16Q96.89-15.15 95.19-15L95.19-15 94.64-14.95Q93.14-14.95 92.27-15.7 91.39-16.45 91.39-17.7L91.39-17.7Q91.39-18.5 91.92-19.48 92.44-20.45 93.24-21.05 94.04-21.65 95.72-22.13 97.39-22.6 98.94-22.6 100.49-22.6 101.34-22.5 102.19-22.4 103.67-22.03 105.14-21.65 106.12-20.6 107.09-19.55 107.17-18.38 107.24-17.2 107.24-15ZM109.54-19.5L109.54-19.5 109.69-21.5Q109.74-21.95 110.39-21.95L110.39-21.95 112.14-21.95 111.94-25.95 111.94-26.15Q111.94-27.3 113.69-28.35 115.44-29.4 116.89-29.4L116.89-29.4Q117.34-29.4 117.34-29L117.34-29 117.34-28.95Q117.14-27.6 116.94-22L116.94-22Q119.14-22 119.74-22.1 120.34-22.2 120.39-22.2L120.39-22.2Q120.74-22.2 120.74-21.6 120.74-21 120.19-20.08 119.64-19.15 118.99-19.1L118.99-19.1 116.89-19.1Q116.84-17.4 116.84-13.38 116.84-9.35 116.91-6.75 116.99-4.15 117.09-2.83 117.19-1.5 117.31-0.7 117.44 0.1 117.51 0.45 117.59 0.8 117.59 0.9L117.59 0.9Q117.59 1.4 116.94 1.45L116.94 1.45Q114.99 1.45 113.06 0.9 111.14 0.35 111.14-1L111.14-1Q112.19-9.4 112.19-19.05L112.19-19.05Q110.84-19.05 110.14-18.95L110.14-18.95 110.09-18.95Q109.64-18.95 109.54-19.5ZM137.84-5.75L137.84-5.75Q137.84-2.9 135.56-1.03 133.29 0.85 130.14 0.85L130.14 0.85Q125.54 0.85 123.39-1.93 121.24-4.7 121.24-9.45L121.24-9.45Q121.24-14.5 123.49-18.4L123.49-18.4Q124.59-20.4 126.64-21.55 128.69-22.7 131.44-22.7L131.44-22.7Q135.59-22.7 137.29-19.9L137.29-19.9Q137.99-18.75 137.99-17.2L137.99-17.2Q137.99-14.8 135.99-13.6L135.99-13.6Q135.19-13.15 134.51-13.15 133.84-13.15 133.41-13.23 132.99-13.3 132.29-13.9 131.59-14.5 131.59-15.55L131.59-15.55Q131.64-16.1 132.44-16.45L132.44-16.45Q133.19-16.9 133.19-18.05L133.19-18.05Q133.19-20 130.79-20L130.79-20Q130.19-20 129.36-19.48 128.54-18.95 127.99-18.13 127.44-17.3 126.96-15.53 126.49-13.75 126.49-12.13 126.49-10.5 126.61-9.68 126.74-8.85 127.16-7.43 127.59-6 128.76-5.1 129.94-4.2 131.69-4.2L131.69-4.2Q133.79-4.2 135.39-5.95L135.39-5.95Q136.04-6.65 136.44-7.65L136.44-7.65Q136.64-8.05 136.94-8.05L136.94-8.05Q137.39-8.05 137.61-7.23 137.84-6.4 137.84-5.75ZM146.93-26.85L146.93-26.85 146.88-22Q146.88-21.7 147.08-21.7 147.28-21.7 147.48-21.85L147.48-21.85Q148.73-22.7 151.43-22.7L151.43-22.7Q155.98-22.7 157.73-19.6L157.73-19.6Q158.38-18.45 158.38-16.55 158.38-14.65 158.16-11.3 157.93-7.95 157.93-6.55L157.93-6.55Q157.93-1.65 159.33-0.05L159.33-0.05Q159.58 0.2 159.58 0.45L159.58 0.45Q159.58 0.95 157.43 0.95L157.43 0.95Q151.63 0.95 151.63-4.45L151.63-4.45Q151.63-6.55 152.63-10.35 153.63-14.15 153.63-15.95 153.63-17.75 152.78-18.73 151.93-19.7 150.43-19.7 148.93-19.7 148.06-19.05 147.18-18.4 146.98-17.7L146.98-17.7 146.83-17.05Q146.78-16.1 146.78-11 146.78-5.9 147.03-4.38 147.28-2.85 147.28-2.65L147.28-2.65Q147.28-1.2 145.33-0.08 143.38 1.05 141.48 1.05L141.48 1.05Q140.78 1.05 140.78 0.25L140.78 0.25 140.88-0.7Q141.98-9.1 141.98-18.9L141.98-18.9Q141.98-22.7 141.68-26.6L141.68-26.6 141.63-27.7Q141.53-29.1 141.06-30.1 140.58-31.1 140.18-31.4L140.18-31.4 139.73-31.65Q139.38-31.85 139.38-32.1L139.38-32.1Q139.38-32.8 141.73-33.83 144.08-34.85 145.36-34.85 146.63-34.85 146.73-34.3L146.73-34.3Q146.93-31.75 146.93-26.85Z"
                                                                    fill="#395297"
                                                                    data-fill-palette-color="primary"></path>
                                                            </g>
                                                        </svg>
                                                    </g>
                                                </svg>
                                            </g>
                                        </svg>
                                    </g>
                                </svg>
                            </g>
                            <g></g>
                        </svg>
                    </g>
                    <defs></defs>
                </svg>
                <rect width="395.52" height="107.61016906700063" fill="none" stroke="none"
                    visibility="hidden"></rect>
            </g>
        </svg>
    </g>
</svg>